<?xml version="1.0" encoding="UTF-8" standalone="no"?>
<!-- Created with matplotlib (http://matplotlib.org/) -->

<svg
   height="685pt"
   version="1.1"
   viewBox="0 0 1440 685"
   width="1440pt"
   id="svg611"
   sodipodi:docname="Benchmarking-Combined.svg"
   inkscape:version="1.1 (c68e22c387, 2021-05-23)"
   xmlns:inkscape="http://www.inkscape.org/namespaces/inkscape"
   xmlns:sodipodi="http://sodipodi.sourceforge.net/DTD/sodipodi-0.dtd"
   xmlns:xlink="http://www.w3.org/1999/xlink"
   xmlns="http://www.w3.org/2000/svg"
   xmlns:svg="http://www.w3.org/2000/svg">
  <sodipodi:namedview
     id="namedview613"
     pagecolor="#ffffff"
     bordercolor="#666666"
     borderopacity="1.0"
     inkscape:pageshadow="2"
     inkscape:pageopacity="0.0"
     inkscape:pagecheckerboard="0"
     inkscape:document-units="pt"
     showgrid="false"
     inkscape:snap-bbox="true"
     inkscape:bbox-nodes="true"
     inkscape:zoom="0.6224411"
     inkscape:cx="921.37232"
     inkscape:cy="449.03847"
     inkscape:window-width="1920"
     inkscape:window-height="1017"
     inkscape:window-x="-8"
     inkscape:window-y="-8"
     inkscape:window-maximized="1"
     inkscape:current-layer="svg611" />
  <defs
     id="defs4">
    <style
       type="text/css"
       id="style2">
*{stroke-linecap:butt;stroke-linejoin:round;}
  </style>
    <defs
       id="defs288">
      <path
         d="m 76.21875,0 h -8 L 51.515625,59.28125 34.8125,0 h -8 L 7.71875,67.671875 H 0.484375 V 72.90625 H 27.09375 V 67.671875 H 18.015625 L 33.203125,13.8125 49.8125,72.90625 h 7.90625 L 74.609375,13.1875 89.890625,67.671875 H 81.5 v 5.234375 h 20.98438 V 67.671875 H 95.3125 Z"
         id="DejaVuSerif-57" />
      <path
         d="m 11.53125,5.171875 v 65.625 H 2.875 v 5.1875 h 17.640625 v -32.1875 Q 23.140625,48.6875 27.21875,51 q 4.078125,2.328125 10.09375,2.328125 9.5625,0 15.609375,-7.578125 6.0625,-7.5625 6.0625,-19.765625 0,-12.21875 -6.0625,-19.8125 -6.046875,-7.59375 -15.609375,-7.59375 -6.015625,0 -10.09375,2.3125 -4.078125,2.328125 -6.703125,7.21875 V 0 H 2.875 v 5.171875 z m 8.984375,18.21875 q 0,-9.375 3.578125,-14.28125 3.59375,-4.90625 10.421875,-4.90625 6.890625,0 10.421875,5.515625 3.546875,5.515625 3.546875,16.265625 0,10.78125 -3.546875,16.25 -3.53125,5.46875 -10.421875,5.46875 -6.828125,0 -10.421875,-4.9375 -3.578125,-4.921875 -3.578125,-14.25 z"
         id="DejaVuSerif-62" />
      <path
         d="m 5.515625,0 v 5.171875 h 9.28125 v 62.5 h -9.28125 v 5.234375 h 28.46875 v -5.234375 h -9.28125 v -25.1875 H 62.5 v 25.1875 H 53.21875 V 72.90625 H 81.6875 v -5.234375 h -9.28125 v -62.5 H 81.6875 V 0 H 53.21875 V 5.171875 H 62.5 V 36.53125 H 24.703125 V 5.171875 h 9.28125 V 0 Z"
         id="DejaVuSerif-48" />
      <path
         d="m 5.515625,0 v 5.171875 h 9.28125 v 62.5 h -9.28125 v 5.234375 h 28.46875 v -5.234375 h -9.28125 V 6 h 33.3125 v 12.21875 h 6 V 0 Z"
         id="DejaVuSerif-4c" />
      <path
         d="m 5.515625,0 v 5.171875 h 9.28125 v 62.5 h -9.8125 V 72.90625 H 26.21875 L 51.8125,21 77.390625,72.90625 H 97.3125 v -5.234375 h -9.71875 v -62.5 h 9.328125 V 0 H 68.40625 V 5.171875 H 77.6875 V 61.53125 l -25,-50.84375 h -6.890625 l -25,50.84375 V 5.171875 h 9.28125 V 0 Z"
         id="DejaVuSerif-4d" />
    </defs>
  </defs>
  <g
     id="line2d_10" />
  <g
     id="line2d_12" />
  <g
     id="g2542"
     transform="translate(-36.029321,-755.43665)"
     style="stroke:none">
    <rect
       style="fill:#ffffff;fill-opacity:1;stroke:none;stroke-width:2.5;stroke-miterlimit:4;stroke-dasharray:none"
       id="rect1157"
       width="1427.8459"
       height="672.35278"
       x="43.679321"
       y="760.18665" />
  </g>
  <g
     id="line2d_22" />
  <g
     id="line2d_24" />
  <defs
     id="defs609">
    <clipPath
       id="p63353c0edc">
      <rect
         height="555.40002"
         width="634.99121"
         x="64.827599"
         y="31.92"
         id="rect603" />
    </clipPath>
    <clipPath
       id="p366f44c629">
      <rect
         height="555.40002"
         width="634.99121"
         x="768.69379"
         y="31.92"
         id="rect606" />
    </clipPath>
  </defs>
  <g
     id="g1900">
    <g
       id="g4216"
       style="stroke:#000000;stroke-width:2.5;stroke-miterlimit:4;stroke-dasharray:none;stroke-opacity:1;fill:none"
       transform="translate(-703.8662)">
      <path
         d="M 768.6938,587.32 H 1403.685 V 31.92 H 768.6938 Z"
         style="fill:none;stroke:#000000;stroke-width:2.5;stroke-miterlimit:4;stroke-dasharray:none;stroke-opacity:1"
         id="path4214" />
    </g>
    <g
       id="matplotlib.axis_1">
      <g
         id="xtick_1">
        <g
           id="line2d_1">
          <defs
             id="defs13">
            <path
               d="M 0,0 V 3.5"
               id="mb92d56cd13"
               style="stroke:#000000;stroke-width:0.8" />
          </defs>
          <g
             id="g17">
            <use
               style="stroke:#000000;stroke-width:0.8"
               x="75.237289"
               xlink:href="#mb92d56cd13"
               y="587.32001"
               id="use15"
               width="100%"
               height="100%" />
          </g>
        </g>
        <g
           id="text_1">
          <!-- 0 -->
          <defs
             id="defs21">
            <path
               d="m 31.78125,3.421875 q 7.484375,0 11.1875,8.203125 3.71875,8.203125 3.71875,24.75 0,16.609375 -3.71875,24.8125 -3.703125,8.203125 -11.1875,8.203125 -7.46875,0 -11.1875,-8.203125 -3.703125,-8.203125 -3.703125,-24.8125 0,-16.546875 3.703125,-24.75 3.71875,-8.203125 11.1875,-8.203125 z m 0,-4.84375 Q 19.921875,-1.421875 13.25,8.53125 6.59375,18.5 6.59375,36.375 q 0,17.921875 6.65625,27.875 6.671875,9.96875 18.53125,9.96875 11.921875,0 18.5625,-9.96875 6.640625,-9.953125 6.640625,-27.875 0,-17.875 -6.640625,-27.84375 -6.640625,-9.953125 -18.5625,-9.953125 z"
               id="DejaVuSerif-30" />
          </defs>
          <g
             transform="matrix(0.2,0,0,-0.2,68.874792,609.51688)"
             id="g25">
            <use
               xlink:href="#DejaVuSerif-30"
               id="use23"
               x="0"
               y="0"
               width="100%"
               height="100%" />
          </g>
        </g>
      </g>
      <g
         id="xtick_2">
        <g
           id="line2d_2">
          <g
             id="g31">
            <use
               style="stroke:#000000;stroke-width:0.8"
               x="387.52805"
               xlink:href="#mb92d56cd13"
               y="587.32001"
               id="use29"
               width="100%"
               height="100%" />
          </g>
        </g>
        <g
           id="text_2">
          <!-- 150 -->
          <defs
             id="defs36">
            <path
               d="M 14.203125,0 V 5.171875 H 26.90625 v 60.65625 l -14.703125,-9.53125 v 6.40625 L 29.984375,74.21875 H 36.71875 V 5.171875 H 49.421875 V 0 Z"
               id="DejaVuSerif-31" />
            <path
               d="M 50.296875,72.90625 V 64.890625 H 16.890625 V 44 q 2.546875,1.75 5.9375,2.625 3.390625,0.890625 7.59375,0.890625 11.8125,0 18.640625,-6.546875 6.84375,-6.546875 6.84375,-17.875 0,-11.5625 -6.90625,-18.046875 -6.90625,-6.46875 -19.40625,-6.46875 -5.03125,0 -10.3125,1.234375 Q 14.015625,1.03125 8.5,3.515625 v 14.15625 h 5.515625 q 0.4375,-6.921875 4.40625,-10.59375 3.984375,-3.65625 11.171875,-3.65625 7.71875,0 11.859375,5.078125 4.15625,5.078125 4.15625,14.59375 0,9.46875 -4.125,14.515625 -4.125,5.0625 -11.890625,5.0625 -4.390625,0 -7.75,-1.5625 Q 18.5,39.546875 15.921875,36.28125 H 11.71875 v 36.625 z"
               id="DejaVuSerif-35" />
          </defs>
          <g
             transform="matrix(0.2,0,0,-0.2,368.44055,609.51688)"
             id="g44">
            <use
               xlink:href="#DejaVuSerif-31"
               id="use38"
               x="0"
               y="0"
               width="100%"
               height="100%" />
            <use
               x="63.623047"
               xlink:href="#DejaVuSerif-35"
               id="use40"
               y="0"
               width="100%"
               height="100%" />
            <use
               x="127.24609"
               xlink:href="#DejaVuSerif-30"
               id="use42"
               y="0"
               width="100%"
               height="100%" />
          </g>
        </g>
      </g>
      <g
         id="xtick_3">
        <g
           id="line2d_3">
          <g
             id="g50">
            <use
               style="stroke:#000000;stroke-width:0.8"
               x="699.81879"
               xlink:href="#mb92d56cd13"
               y="587.32001"
               id="use48"
               width="100%"
               height="100%" />
          </g>
        </g>
        <g
           id="text_3">
          <!-- 300 -->
          <defs
             id="defs54">
            <path
               d="m 9.71875,69.828125 q 5.71875,2.140625 10.953125,3.265625 5.25,1.125 9.84375,1.125 10.703125,0 16.703125,-4.625 6,-4.609375 6,-12.8125 0,-6.578125 -4.15625,-11 -4.140625,-4.421875 -11.75,-5.984375 8.984375,-1.265625 13.9375,-6.515625 4.953125,-5.25 4.953125,-13.609375 0,-10.203125 -6.859375,-15.65625 -6.859375,-5.4375 -19.75,-5.4375 -5.71875,0 -11.171875,1.234375 Q 12.984375,1.03125 7.625,3.515625 v 14.15625 h 5.46875 q 0.484375,-7.03125 4.734375,-10.640625 4.25,-3.609375 11.953125,-3.609375 7.46875,0 11.796875,4.3125 4.328125,4.328125 4.328125,11.84375 0,8.59375 -4.453125,13.015625 -4.4375,4.421875 -13.03125,4.421875 H 23.78125 V 42 h 2.4375 q 8.546875,0 12.8125,3.53125 4.28125,3.546875 4.28125,10.671875 0,6.390625 -3.515625,9.78125 -3.515625,3.40625 -10.109375,3.40625 -6.59375,0 -10.234375,-3.125 -3.625,-3.125 -4.265625,-9.28125 H 9.71875 Z"
               id="DejaVuSerif-33" />
          </defs>
          <g
             transform="matrix(0.2,0,0,-0.2,680.7313,609.51688)"
             id="g62">
            <use
               xlink:href="#DejaVuSerif-33"
               id="use56"
               x="0"
               y="0"
               width="100%"
               height="100%" />
            <use
               x="63.623047"
               xlink:href="#DejaVuSerif-30"
               id="use58"
               y="0"
               width="100%"
               height="100%" />
            <use
               x="127.24609"
               xlink:href="#DejaVuSerif-30"
               id="use60"
               y="0"
               width="100%"
               height="100%" />
          </g>
        </g>
      </g>
      <g
         id="text_4">
        <!-- Time [min] -->
        <defs
           id="defs74">
          <path
             d="m 19.09375,0 v 5.171875 h 9.328125 V 67.09375 h -21.4375 v -11.375 h -6 v 17.1875 H 65.71875 v -17.1875 h -6 v 11.375 H 38.28125 V 5.171875 h 9.328125 V 0 Z"
             id="DejaVuSerif-54" />
          <path
             d="m 9.71875,68.015625 q 0,2.25 1.625,3.90625 1.640625,1.65625 3.9375,1.65625 2.25,0 3.875,-1.65625 1.640625,-1.65625 1.640625,-3.90625 0,-2.296875 -1.609375,-3.90625 Q 17.578125,62.5 15.28125,62.5 q -2.296875,0 -3.9375,1.609375 -1.625,1.609375 -1.625,3.90625 z M 21.1875,5.171875 h 8.5 V 0 H 3.609375 v 5.171875 h 8.59375 V 46.6875 h -8.59375 v 5.21875 H 21.1875 Z"
             id="DejaVuSerif-69" />
          <path
             d="m 51.8125,41.796875 q 2.578125,5.71875 6.609375,8.625 4.03125,2.90625 9.40625,2.90625 8.15625,0 12.15625,-5.0625 4,-5.046875 4,-15.25 V 5.171875 H 92.09375 V 0 H 67.1875 V 5.171875 H 75 v 26.8125 q 0,7.953125 -2.34375,11.328125 -2.34375,3.375 -7.765625,3.375 -6,0 -9.15625,-4.546875 Q 52.59375,37.59375 52.59375,28.90625 V 5.171875 h 7.8125 V 0 H 35.796875 v 5.171875 h 7.8125 v 27.15625 q 0,7.765625 -2.34375,11.0625 Q 38.921875,46.6875 33.5,46.6875 q -6.015625,0 -9.171875,-4.546875 Q 21.1875,37.59375 21.1875,28.90625 V 5.171875 H 29 V 0 H 4.109375 v 5.171875 h 8.09375 V 46.78125 h -8.59375 v 5.125 H 21.1875 v -9.234375 q 2.5,5.1875 6.34375,7.921875 3.859375,2.734375 8.75,2.734375 6.046875,0 10.09375,-3.015625 4.0625,-3 5.4375,-8.515625 z"
             id="DejaVuSerif-6d" />
          <path
             d="m 54.203125,25 h -38.71875 v -0.390625 q 0,-10.5 3.953125,-15.84375 3.953125,-5.34375 11.671875,-5.34375 5.90625,0 9.6875,3.09375 3.78125,3.109375 5.296875,9.203125 h 7.234375 Q 51.171875,7.171875 45.375,2.875 39.59375,-1.421875 30.171875,-1.421875 q -11.375,0 -18.28125,7.5 -6.90625,7.5 -6.90625,19.90625 0,12.296875 6.78125,19.8125 6.796875,7.53125 17.828125,7.53125 11.765625,0 18.0625,-7.265625 6.296875,-7.25 6.546875,-21.0625 z m -10.59375,5.171875 q -0.296875,9.09375 -3.84375,13.703125 -3.53125,4.609375 -10.171875,4.609375 -6.203125,0 -9.765625,-4.640625 -3.5625,-4.640625 -4.34375,-13.671875 z"
             id="DejaVuSerif-65" />
          <path
             id="DejaVuSerif-20"
             d="" />
          <path
             d="m 8.59375,75.984375 h 22.703125 v -5.1875 h -13.375 v -78.8125 h 13.375 V -13.1875 H 8.59375 Z"
             id="DejaVuSerif-5b" />
          <path
             d="m 4.109375,0 v 5.171875 h 8.09375 V 46.6875 h -8.59375 v 5.21875 H 21.1875 v -9.234375 q 2.5,5.28125 6.46875,7.96875 3.984375,2.6875 9.265625,2.6875 8.59375,0 12.640625,-4.9375 4.046875,-4.9375 4.046875,-15.375 V 5.171875 H 61.625 V 0 H 36.8125 v 5.171875 h 7.765625 v 25 q 0,9.53125 -2.34375,13.0625 -2.34375,3.546875 -8.25,3.546875 -6.25,0 -9.53125,-4.578125 Q 21.1875,37.640625 21.1875,28.90625 V 5.171875 H 29 V 0 Z"
             id="DejaVuSerif-6e" />
          <path
             d="M 30.421875,75.984375 V -13.1875 H 7.71875 v 5.171875 h 13.375 v 78.8125 h -13.375 v 5.1875 z"
             id="DejaVuSerif-5d" />
        </defs>
        <g
           transform="matrix(0.2,0,0,-0.2,326.94976,632.87312)"
           id="g96">
          <use
             xlink:href="#DejaVuSerif-54"
             id="use76"
             x="0"
             y="0"
             width="100%"
             height="100%" />
          <use
             x="66.699219"
             xlink:href="#DejaVuSerif-69"
             id="use78"
             y="0"
             width="100%"
             height="100%" />
          <use
             x="98.681641"
             xlink:href="#DejaVuSerif-6d"
             id="use80"
             y="0"
             width="100%"
             height="100%" />
          <use
             x="193.50586"
             xlink:href="#DejaVuSerif-65"
             id="use82"
             y="0"
             width="100%"
             height="100%" />
          <use
             x="252.68555"
             xlink:href="#DejaVuSerif-20"
             id="use84"
             y="0"
             width="100%"
             height="100%" />
          <use
             x="284.47266"
             xlink:href="#DejaVuSerif-5b"
             id="use86"
             y="0"
             width="100%"
             height="100%" />
          <use
             x="323.48633"
             xlink:href="#DejaVuSerif-6d"
             id="use88"
             y="0"
             width="100%"
             height="100%" />
          <use
             x="418.31055"
             xlink:href="#DejaVuSerif-69"
             id="use90"
             y="0"
             width="100%"
             height="100%" />
          <use
             x="450.29297"
             xlink:href="#DejaVuSerif-6e"
             id="use92"
             y="0"
             width="100%"
             height="100%" />
          <use
             x="514.69727"
             xlink:href="#DejaVuSerif-5d"
             id="use94"
             y="0"
             width="100%"
             height="100%" />
        </g>
      </g>
    </g>
    <g
       id="matplotlib.axis_2">
      <g
         id="ytick_1">
        <g
           id="line2d_4">
          <defs
             id="defs101">
            <path
               d="M 0,0 H -3.5"
               id="m80b14eff4f"
               style="stroke:#000000;stroke-width:0.8" />
          </defs>
          <g
             id="g105">
            <use
               style="stroke:#000000;stroke-width:0.8"
               x="64.827599"
               xlink:href="#m80b14eff4f"
               y="579.67688"
               id="use103"
               width="100%"
               height="100%" />
          </g>
        </g>
        <g
           id="text_5">
          <!-- 0 -->
          <g
             transform="matrix(0.2,0,0,-0.2,45.1026,587.27532)"
             id="g110">
            <use
               xlink:href="#DejaVuSerif-30"
               id="use108"
               x="0"
               y="0"
               width="100%"
               height="100%" />
          </g>
        </g>
      </g>
      <g
         id="ytick_2">
        <g
           id="line2d_5">
          <g
             id="g116">
            <use
               style="stroke:#000000;stroke-width:0.8"
               x="64.827599"
               xlink:href="#m80b14eff4f"
               y="324.90625"
               id="use114"
               width="100%"
               height="100%" />
          </g>
        </g>
        <g
           id="text_6">
          <!-- 1 -->
          <g
             transform="matrix(0.2,0,0,-0.2,45.1026,332.50468)"
             id="g121">
            <use
               xlink:href="#DejaVuSerif-31"
               id="use119"
               x="0"
               y="0"
               width="100%"
               height="100%" />
          </g>
        </g>
      </g>
      <g
         id="ytick_3">
        <g
           id="line2d_6">
          <g
             id="g127">
            <use
               style="stroke:#000000;stroke-width:0.8"
               x="64.827599"
               xlink:href="#m80b14eff4f"
               y="70.135597"
               id="use125"
               width="100%"
               height="100%" />
          </g>
        </g>
        <g
           id="text_7">
          <!-- 2 -->
          <defs
             id="defs131">
            <path
               d="M 12.796875,55.515625 H 7.328125 V 68.5 q 5.21875,2.796875 10.515625,4.25 5.296875,1.46875 10.375,1.46875 11.375,0 17.96875,-5.515625 6.59375,-5.515625 6.59375,-14.984375 0,-10.703125 -14.9375,-25.59375 Q 36.671875,27 36.078125,26.421875 L 17.671875,8.015625 H 48.09375 V 17 H 53.8125 V 0 H 6.78125 v 5.328125 l 22.125,22.0625 q 7.328125,7.328125 10.453125,13.453125 3.125,6.125 3.125,12.875 0,7.359375 -3.84375,11.515625 -3.828125,4.15625 -10.5625,4.15625 -6.984375,0 -10.796875,-3.46875 -3.796875,-3.46875 -4.484375,-10.40625 z"
               id="DejaVuSerif-32" />
          </defs>
          <g
             transform="matrix(0.2,0,0,-0.2,45.1026,77.734034)"
             id="g135">
            <use
               xlink:href="#DejaVuSerif-32"
               id="use133"
               x="0"
               y="0"
               width="100%"
               height="100%" />
          </g>
        </g>
      </g>
      <g
         id="text_8">
        <!-- Discharge [$\frac{m^3}{s}$] -->
        <defs
           id="defs149">
          <path
             d="m 24.703125,5.171875 h 9.09375 q 14.203125,0 21.796875,8.109375 7.59375,8.109375 7.59375,23.25 0,15.125 -7.578125,23.125 -7.5625,8.015625 -21.8125,8.015625 h -9.09375 z M 5.515625,0 v 5.171875 h 9.28125 v 62.5 h -9.28125 v 5.234375 h 29 q 18.859375,0 29.375,-9.625 10.53125,-9.625 10.53125,-26.75 0,-17.1875 -10.546875,-26.859375 Q 53.328125,0 34.515625,0 Z"
             id="DejaVuSerif-44" />
          <path
             d="m 5.609375,2.875 v 12.109375 h 5.1875 q 0.1875,-5.796875 3.625,-8.6875 3.453125,-2.875 10.1875,-2.875 6.0625,0 9.234375,2.265625 3.171875,2.265625 3.171875,6.625 0,3.40625 -2.328125,5.5 -2.3125,2.109375 -9.78125,4.5 l -6.5,2.203125 q -6.6875,2.140625 -9.6875,5.359375 -3,3.234375 -3,8.21875 0,7.125 5.21875,11.171875 5.21875,4.0625 14.453125,4.0625 4.109375,0 8.640625,-1.078125 4.546875,-1.078125 9.375,-3.125 V 37.796875 h -5.171875 q -0.203125,5.03125 -3.53125,7.859375 -3.3125,2.828125 -9.015625,2.828125 -5.671875,0 -8.578125,-2 -2.90625,-2 -2.90625,-6 0,-3.28125 2.203125,-5.265625 2.203125,-1.96875 8.796875,-4.015625 L 32.328125,29 q 7.375,-2.296875 10.609375,-5.734375 3.25,-3.4375 3.25,-8.859375 0,-7.375 -5.640625,-11.609375 Q 34.90625,-1.421875 25,-1.421875 q -5.03125,0 -9.8125,1.078125 Q 10.40625,0.734375 5.609375,2.875 Z"
             id="DejaVuSerif-73" />
          <path
             d="M 51.421875,15.578125 Q 49.515625,7.28125 44.09375,2.921875 q -5.421875,-4.34375 -14.015625,-4.34375 -11.328125,0 -18.21875,7.5 -6.875,7.5 -6.875,19.90625 0,12.4375 6.875,19.890625 6.890625,7.453125 18.21875,7.453125 4.9375,0 9.8125,-1.15625 4.890625,-1.140625 9.8125,-3.484375 V 35.40625 h -5.21875 q -1.03125,6.828125 -4.46875,9.953125 -3.4375,3.125 -9.84375,3.125 -7.265625,0 -10.984375,-5.640625 -3.703125,-5.640625 -3.703125,-16.859375 0,-11.234375 3.6875,-16.90625 3.6875,-5.65625 11,-5.65625 5.8125,0 9.28125,3.015625 3.46875,3.03125 4.734375,9.140625 z"
             id="DejaVuSerif-63" />
          <path
             d="m 4.109375,0 v 5.171875 h 8.09375 v 65.625 h -8.59375 v 5.1875 H 21.1875 v -33.3125 q 2.5,5.28125 6.46875,7.96875 3.984375,2.6875 9.265625,2.6875 8.59375,0 12.640625,-4.9375 4.046875,-4.9375 4.046875,-15.375 V 5.171875 H 61.625 V 0 H 36.8125 v 5.171875 h 7.765625 v 25 q 0,9.53125 -2.328125,13.015625 -2.3125,3.5 -8.265625,3.5 -6.25,0 -9.53125,-4.546875 Q 21.1875,37.59375 21.1875,28.90625 V 5.171875 H 29 V 0 Z"
             id="DejaVuSerif-68" />
          <path
             d="M 39.796875,16.3125 V 27.296875 H 28.21875 q -6.6875,0 -9.96875,-2.890625 -3.265625,-2.875 -3.265625,-8.828125 0,-5.421875 3.3125,-8.59375 3.328125,-3.171875 9,-3.171875 5.609375,0 9.046875,3.46875 3.453125,3.46875 3.453125,9.03125 z m 8.984375,16.109375 v -27.25 h 8 V 0 H 39.796875 V 5.609375 Q 36.8125,2 32.90625,0.28125 29,-1.421875 23.78125,-1.421875 q -8.640625,0 -13.71875,4.59375 -5.078125,4.59375 -5.078125,12.40625 0,8.0625 5.8125,12.5 5.8125,4.4375 16.40625,4.4375 h 12.59375 v 3.5625 q 0,5.921875 -3.59375,9.15625 -3.578125,3.25 -10.078125,3.25 -5.375,0 -8.546875,-2.4375 Q 14.40625,43.609375 13.625,38.8125 H 8.984375 v 10.5 q 4.6875,2 9.109375,3 4.421875,1.015625 8.609375,1.015625 10.796875,0 16.4375,-5.359375 Q 48.78125,42.625 48.78125,32.421875 Z"
             id="DejaVuSerif-61" />
          <path
             d="M 47.796875,52 V 39.015625 H 42.625 q -0.234375,3.859375 -2.140625,5.765625 -1.90625,1.90625 -5.578125,1.90625 -6.640625,0 -10.1875,-4.59375 Q 21.1875,37.5 21.1875,28.90625 V 5.171875 H 31.59375 V 0 H 4.109375 v 5.171875 h 8.09375 V 46.78125 h -8.59375 v 5.125 H 21.1875 v -9.234375 q 2.640625,5.421875 6.78125,8.03125 4.15625,2.625 10.125,2.625 2.1875,0 4.609375,-0.34375 Q 45.125,52.640625 47.796875,52 Z"
             id="DejaVuSerif-72" />
          <path
             d="M 52.484375,46.6875 V 1.125 q 0,-11.1875 -6.15625,-17.265625 Q 40.1875,-22.21875 28.8125,-22.21875 q -5.125,0 -9.8125,0.9375 -4.6875,0.921875 -8.984375,2.78125 v 10.875 h 4.6875 q 0.875,-5.078125 4.140625,-7.421875 3.28125,-2.34375 9.375,-2.34375 7.921875,0 11.59375,4.46875 Q 43.5,-8.453125 43.5,1.125 v 6.984375 q -2.625,-4.890625 -6.703125,-7.21875 -4.078125,-2.3125 -10.09375,-2.3125 -9.5625,0 -15.640625,7.59375 -6.078125,7.59375 -6.078125,19.8125 0,12.203125 6.046875,19.765625 6.0625,7.578125 15.671875,7.578125 6.015625,0 10.09375,-2.328125 Q 40.875,48.6875 43.5,43.796875 V 51.90625 H 61.078125 V 46.6875 Z M 43.5,28.515625 q 0,9.328125 -3.59375,14.25 -3.578125,4.9375 -10.40625,4.9375 -6.9375,0 -10.484375,-5.46875 -3.53125,-5.46875 -3.53125,-16.25 0,-10.75 3.53125,-16.265625 Q 22.5625,4.203125 29.5,4.203125 q 6.828125,0 10.40625,4.90625 Q 43.5,14.015625 43.5,23.390625 Z"
             id="DejaVuSerif-67" />
          <path
             d="M 89.796875,33.015625 83.40625,0 h -8.984375 l 6.296875,32.71875 q 0.390625,2.09375 0.578125,3.609375 Q 81.5,37.84375 81.5,38.921875 81.5,43.3125 79.046875,45.75 q -2.4375,2.4375 -6.828125,2.4375 -6.546875,0 -11.671875,-4.90625 -5.125,-4.90625 -6.640625,-12.765625 L 47.90625,0 H 38.921875 L 45.3125,32.71875 q 0.390625,1.796875 0.578125,3.328125 0.203125,1.546875 0.203125,2.765625 0,4.453125 -2.4375,6.90625 -2.4375,2.46875 -6.734375,2.46875 -6.640625,0 -11.78125,-4.90625 Q 20.015625,38.375 18.5,30.515625 L 12.5,0 H 3.515625 l 10.6875,54.6875 H 23.1875 l -1.703125,-8.5 q 3.65625,4.796875 8.5625,7.296875 Q 34.96875,56 40.578125,56 q 5.953125,0 9.78125,-3.125 3.84375,-3.125 4.625,-8.6875 4.09375,5.765625 9.484375,8.78125 Q 69.875,56 75.875,56 q 7.03125,0 10.859375,-4.046875 3.84375,-4.046875 3.84375,-11.46875 0,-1.609375 -0.203125,-3.546875 -0.1875,-1.921875 -0.578125,-3.921875 z"
             id="DejaVuSans-Oblique-6d" />
          <path
             d="M 40.578125,39.3125 Q 47.65625,37.796875 51.625,33 q 3.984375,-4.78125 3.984375,-11.8125 0,-10.78125 -7.421875,-16.703125 -7.421875,-5.90625 -21.09375,-5.90625 -4.578125,0 -9.4375,0.90625 -4.859375,0.90625 -10.03125,2.71875 v 9.515625 q 4.09375,-2.390625 8.96875,-3.609375 4.890625,-1.21875 10.21875,-1.21875 9.265625,0 14.125,3.65625 4.859375,3.65625 4.859375,10.640625 0,6.453125 -4.515625,10.078125 -4.515625,3.640625 -12.5625,3.640625 h -8.5 v 8.109375 h 8.890625 q 7.265625,0 11.125,2.90625 3.859375,2.90625 3.859375,8.375 0,5.609375 -3.984375,8.609375 -3.96875,3.015625 -11.390625,3.015625 -4.0625,0 -8.703125,-0.890625 Q 15.375,64.15625 9.8125,62.3125 v 8.78125 q 5.625,1.5625 10.53125,2.34375 4.90625,0.78125 9.25,0.78125 11.234375,0 17.765625,-5.109375 6.546875,-5.09375 6.546875,-13.78125 0,-6.0625 -3.46875,-10.234375 -3.46875,-4.171875 -9.859375,-5.78125 z"
             id="DejaVuSans-33" />
          <path
             d="m 50,53.078125 -1.703125,-8.5 Q 44.734375,46.53125 40.765625,47.5 36.8125,48.484375 32.625,48.484375 q -7.09375,0 -11.171875,-2.421875 -4.0625,-2.40625 -4.0625,-6.5625 0,-4.828125 9.46875,-7.421875 0.734375,-0.1875 1.078125,-0.296875 l 2.875,-0.875 q 8.984375,-2.484375 11.984375,-5.21875 3,-2.734375 3,-7.46875 0,-8.703125 -6.90625,-14.171875 -6.90625,-5.46875 -18.09375,-5.46875 -4.34375,0 -9.125,0.84375 Q 6.890625,0.25 1.125,2 l 1.75,9.28125 q 4.9375,-2.546875 9.71875,-3.859375 4.796875,-1.3125 9.1875,-1.3125 6.59375,0 10.71875,2.828125 4.125,2.828125 4.125,7.171875 0,4.6875 -10.84375,7.578125 l -0.921875,0.234375 -3.078125,0.78125 Q 14.9375,26.515625 11.765625,29.46875 8.59375,32.421875 8.59375,37.015625 8.59375,45.75 15.15625,50.875 21.734375,56 33.015625,56 q 4.4375,0 8.65625,-0.734375 Q 45.90625,54.546875 50,53.078125 Z"
             id="DejaVuSans-Oblique-73" />
        </defs>
        <g
           transform="matrix(0,-0.2,-0.2,0,35.5026,383.82)"
           id="g183">
          <use
             transform="translate(0,0.039062)"
             xlink:href="#DejaVuSerif-44"
             id="use151"
             x="0"
             y="0"
             width="100%"
             height="100%" />
          <use
             transform="translate(80.175781,0.039062)"
             xlink:href="#DejaVuSerif-69"
             id="use153"
             x="0"
             y="0"
             width="100%"
             height="100%" />
          <use
             transform="translate(112.1582,0.039062)"
             xlink:href="#DejaVuSerif-73"
             id="use155"
             x="0"
             y="0"
             width="100%"
             height="100%" />
          <use
             transform="translate(163.47656,0.039062)"
             xlink:href="#DejaVuSerif-63"
             id="use157"
             x="0"
             y="0"
             width="100%"
             height="100%" />
          <use
             transform="translate(219.48242,0.039062)"
             xlink:href="#DejaVuSerif-68"
             id="use159"
             x="0"
             y="0"
             width="100%"
             height="100%" />
          <use
             transform="translate(283.88672,0.039062)"
             xlink:href="#DejaVuSerif-61"
             id="use161"
             x="0"
             y="0"
             width="100%"
             height="100%" />
          <use
             transform="translate(343.50586,0.039062)"
             xlink:href="#DejaVuSerif-72"
             id="use163"
             x="0"
             y="0"
             width="100%"
             height="100%" />
          <use
             transform="translate(391.30859,0.039062)"
             xlink:href="#DejaVuSerif-67"
             id="use165"
             x="0"
             y="0"
             width="100%"
             height="100%" />
          <use
             transform="translate(455.32227,0.039062)"
             xlink:href="#DejaVuSerif-65"
             id="use167"
             x="0"
             y="0"
             width="100%"
             height="100%" />
          <use
             transform="translate(514.50195,0.039062)"
             xlink:href="#DejaVuSerif-20"
             id="use169"
             x="0"
             y="0"
             width="100%"
             height="100%" />
          <use
             transform="translate(546.28906,0.039062)"
             xlink:href="#DejaVuSerif-5b"
             id="use171"
             x="0"
             y="0"
             width="100%"
             height="100%" />
          <use
             transform="matrix(0.7,0,0,0.7,585.30273,43.835938)"
             xlink:href="#DejaVuSans-Oblique-6d"
             id="use173"
             x="0"
             y="0"
             width="100%"
             height="100%" />
          <use
             transform="matrix(0.49,0,0,0.49,656.74614,70.632812)"
             xlink:href="#DejaVuSans-33"
             id="use175"
             x="0"
             y="0"
             width="100%"
             height="100%" />
          <use
             transform="matrix(0.7,0,0,0.7,619.30273,-26.614062)"
             xlink:href="#DejaVuSans-Oblique-73"
             id="use177"
             x="0"
             y="0"
             width="100%"
             height="100%" />
          <use
             transform="translate(702.33549,0.039062)"
             xlink:href="#DejaVuSerif-5d"
             id="use179"
             x="0"
             y="0"
             width="100%"
             height="100%" />
          <path
             d="m 585.30273,18.835938 v 6.25 h 104.53276 v -6.25 z"
             id="path181" />
        </g>
      </g>
    </g>
    <g
       id="line2d_7">
      <path
         clip-path="url(#p63353c0edc)"
         d="m 75.237292,579.67688 10.368053,-0.50954 10.492969,-2.03817 10.368056,-5.35018 10.36805,-8.91697 10.49297,-13.75762 10.36805,-18.08871 10.36806,-22.92936 10.49296,-27.51523 10.36806,-30.82725 10.36805,-33.62972 10.49297,-35.41312 20.73611,-71.59055 10.49297,-34.13927 10.36805,-32.1011 10.36805,-29.80816 10.49297,-27.51523 10.36805,-24.45798 10.36806,-22.16505 10.49297,-19.36257 10.36805,-16.05055 10.36805,-10.700367 10.49297,-5.604954 10.36805,-1.019082 10.36806,2.802477 10.49297,5.859725 10.36805,8.407431 10.36805,9.93605 10.49297,10.95514 10.36806,11.71945 10.36805,11.97422 20.86102,22.92936 10.36805,10.70037 10.49297,9.93605 10.36806,9.42652 10.36805,8.40743 10.49297,7.89789 10.36805,7.13357 10.36805,6.62404 10.49298,6.87881 10.36805,9.17174 10.36805,11.46468 10.49297,13.50284 10.36805,14.7767 10.36806,16.05055 10.49296,16.81487 10.36806,17.06963 10.36805,16.81486 10.49297,16.56009 10.36805,16.05055 10.36806,15.28624 10.49297,14.52193 10.36805,13.75761 10.36805,12.48376 10.49297,11.71945 10.36806,10.70037 10.36805,9.93606 10.49297,9.17174 10.36805,8.40743 10.36805,7.38835 10.49297,6.87881 10.36805,6.36926 10.36806,5.60496 10.49297,5.35018 10.36805,4.58587 10.36805,4.3311 10.49297,4.07633 20.73611,6.62404 10.49297,3.05725 20.73611,5.09541 20.86102,4.07633 20.86102,3.56679 10.36805,1.52862 31.22908,3.82156 20.86102,2.03817 10.36805,0.76431 10.36806,1.01908 10.49297,0.76431 10.36805,0.50954 10.36805,0.76432 41.72207,2.03816 10.368,0.25477 10.3681,0.50954 10.493,0.25478 10.368,0.50954 62.4582,1.52862 h 10.368 l 20.861,0.50954 h 10.3681 l 10.493,0.25477 h 10.368 l 10.3681,0.25477 h 10.4929 l 10.3681,0.25477 h 10.368 l 10.493,0.25477 h 20.7361 l 10.493,0.25477 h 31.2291 l 10.368,0.25478 h 41.5971 l 10.493,0.25477 H 1441 v 0"
         style="fill:none;stroke:#000000;stroke-width:3;stroke-linecap:square"
         id="path187" />
    </g>
    <path
       clip-path="url(#p63353c0edc)"
       d="m 75.237292,579.67663 10.409692,-0.42067 10.409691,-2.19559 10.409695,-5.19129 10.40969,-9.10231 10.40969,-13.55673 10.40969,-18.24992 10.40969,-22.91292 10.4097,-27.24592 10.40969,-30.93207 10.40969,-33.69399 10.40969,-35.36733 10.40969,-35.92208 10.40969,-35.45402 10.4097,-34.14167 10.40969,-32.20011 10.40969,-29.84662 10.40969,-27.26945 10.40969,-24.62296 10.4097,-22.02183 10.40969,-19.54424 10.40969,-15.94595 10.40969,-10.717523 10.40969,-5.626914 10.40969,-1.083758 10.4097,2.780694 10.40969,5.912332 10.40969,8.306859 10.40969,10.00676 10.40969,11.09108 10.4097,11.65674 10.40969,11.80855 10.40969,11.64231 10.40969,11.24578 10.40969,10.6893 10.40969,10.03215 10.4097,9.31951 10.40969,8.58418 10.40969,7.85195 10.40969,7.14105 10.40969,6.46136 10.4097,7.01398 10.40969,9.21476 10.40969,11.44496 10.40969,13.37016 10.40969,14.90472 10.4097,16.01807 10.40969,16.71049 10.40969,17.00678 10.40969,16.9545 10.40969,16.61156 10.40969,16.04349 10.4097,15.31111 10.40969,14.46928 10.40969,13.56294 10.40969,12.62932 10.40969,11.69706 10.4097,10.78561 10.40969,9.90938 10.40969,9.07875 10.40969,8.29885"
       style="fill:none;stroke:#ff5cad;stroke-width:2.5;stroke-dasharray:9.25, 4;stroke-dashoffset:0"
       id="path190" />
    <rect
       style="fill:none;fill-opacity:0.988235;stroke:#000000;stroke-width:2.5;stroke-miterlimit:4;stroke-dasharray:none;stroke-opacity:1"
       id="rect2723"
       width="634.99121"
       height="555.40002"
       x="768.69379"
       y="31.920002" />
    <g
       id="text_9">
      <!-- Test Network Outlet (ID 80) -->
      <defs
         id="defs217">
        <path
           d="M 10.796875,46.6875 H 2.875 v 5.21875 h 7.921875 v 16.109375 h 9.03125 V 51.90625 H 36.71875 V 46.6875 H 19.828125 V 13.71875 q 0,-6.59375 1.265625,-8.453125 1.265625,-1.84375 4.6875,-1.84375 3.515625,0 5.125,2.0625 1.609375,2.078125 1.71875,6.71875 h 6.78125 Q 39.015625,5.125 35.546875,1.84375 32.078125,-1.421875 25,-1.421875 q -7.765625,0 -10.984375,3.4375 -3.21875,3.453125 -3.21875,11.703125 z"
           id="DejaVuSerif-74" />
        <path
           d="m 4.890625,0 v 5.171875 h 9.8125 v 62.5 h -9.8125 v 5.234375 h 18.6875 L 67.28125,15.375 v 52.296875 h -9.765625 v 5.234375 h 25.59375 v -5.234375 h -9.8125 v -69.09375 h -5.90625 l -46.6875,61.4375 V 5.171875 h 9.8125 V 0 Z"
           id="DejaVuSerif-4e" />
        <path
           d="M 48,51.90625 61.28125,11.375 73,46.6875 h -7.515625 v 5.21875 H 84.28125 V 46.6875 H 78.515625 L 63.09375,0 H 55.609375 L 42.828125,38.8125 29.984375,0 h -7.1875 l -15.375,46.6875 h -5.8125 v 5.21875 H 25.09375 V 46.6875 h -8.390625 l 11.625,-35.3125 13.375,40.53125 z"
           id="DejaVuSerif-77" />
        <path
           d="m 30.078125,3.421875 q 7.234375,0 10.90625,5.703125 3.6875,5.71875 3.6875,16.859375 0,11.125 -3.6875,16.8125 -3.671875,5.6875 -10.90625,5.6875 -7.21875,0 -10.90625,-5.6875 -3.6875,-5.6875 -3.6875,-16.8125 0,-11.140625 3.703125,-16.859375 3.71875,-5.703125 10.890625,-5.703125 z m 0,-4.84375 q -11.328125,0 -18.21875,7.5 -6.875,7.5 -6.875,19.90625 0,12.390625 6.859375,19.859375 6.859375,7.484375 18.234375,7.484375 11.375,0 18.234375,-7.484375 6.859375,-7.46875 6.859375,-19.859375 0,-12.40625 -6.859375,-19.90625 -6.859375,-7.5 -18.234375,-7.5 z"
           id="DejaVuSerif-6f" />
        <path
           d="m 28.609375,0 h -25.1875 v 5.171875 h 8.109375 v 65.625 H 2.875 v 5.1875 h 17.640625 v -49.46875 l 21.875,20.171875 H 34.90625 v 5.21875 h 23.5 V 46.6875 h -8.890625 l -15.4375,-14.265625 19.734375,-27.25 h 7.46875 V 0 H 35.6875 v 5.171875 h 7.421875 l -15.515625,21.34375 -7.078125,-6.59375 v -14.75 h 8.09375 z"
           id="DejaVuSerif-6b" />
        <path
           d="m 41.015625,3.8125 q 11.96875,0 18.0625,8.21875 6.109375,8.234375 6.109375,24.34375 0,16.171875 -6.109375,24.390625 Q 52.984375,69 41.015625,69 29,69 22.890625,60.765625 16.796875,52.546875 16.796875,36.375 q 0,-16.109375 6.09375,-24.34375 Q 29,3.8125 41.015625,3.8125 Z m 0,-5.234375 q -7.421875,0 -13.65625,2.4375 -6.21875,2.453125 -10.953125,7.1875 -5.46875,5.46875 -8.140625,12.40625 -2.65625,6.9375 -2.65625,15.765625 0,8.84375 2.65625,15.796875 2.671875,6.953125 8.140625,12.421875 4.78125,4.796875 10.9375,7.203125 6.15625,2.421875 13.671875,2.421875 15.875,0 25.640625,-10.40625 9.765625,-10.390625 9.765625,-27.4375 0,-8.734375 -2.6875,-15.75 -2.6875,-7 -8.15625,-12.421875 Q 60.796875,3.421875 54.640625,1 q -6.15625,-2.421875 -13.625,-2.421875 z"
           id="DejaVuSerif-4f" />
        <path
           d="M 35.40625,51.90625 H 52.203125 V 5.171875 H 60.6875 V 0 H 43.21875 V 9.1875 Q 40.71875,4 36.765625,1.28125 32.8125,-1.421875 27.59375,-1.421875 q -8.640625,0 -12.71875,4.90625 -4.078125,4.921875 -4.078125,15.40625 V 46.6875 H 2.6875 v 5.21875 H 19.828125 V 21.6875 q 0,-9.484375 2.3125,-13 2.328125,-3.515625 8.28125,-3.515625 6.25,0 9.515625,4.59375 3.28125,4.59375 3.28125,13.328125 V 46.6875 h -7.8125 z"
           id="DejaVuSerif-75" />
        <path
           d="M 20.515625,5.171875 H 29 V 0 H 2.875 v 5.171875 h 8.65625 v 65.625 H 2.875 v 5.1875 h 17.640625 z"
           id="DejaVuSerif-6c" />
        <path
           d="m 31.890625,-15.578125 q -11.875,5.328125 -17.9375,16.875 -6.046875,11.546875 -6.046875,28.875 0,17.390625 6.046875,28.9375 6.0625,11.546875 17.9375,16.875 V 71.1875 q -7.53125,-5.171875 -10.796875,-14.578125 -3.265625,-9.390625 -3.265625,-26.4375 0,-16.984375 3.265625,-26.390625 3.265625,-9.390625 10.796875,-14.578125 z"
           id="DejaVuSerif-28" />
        <path
           d="m 24.703125,5.171875 h 9.28125 V 0 H 5.515625 v 5.171875 h 9.28125 v 62.5 h -9.28125 v 5.234375 h 28.46875 v -5.234375 h -9.28125 z"
           id="DejaVuSerif-49" />
        <path
           d="m 46.578125,19.921875 q 0,7.8125 -3.890625,12.125 Q 38.8125,36.375 31.78125,36.375 24.75,36.375 20.875,32.046875 17,27.734375 17,19.921875 q 0,-7.859375 3.875,-12.1875 3.875,-4.3125 10.90625,-4.3125 7.03125,0 10.90625,4.3125 3.890625,4.328125 3.890625,12.1875 z m -2,35.40625 q 0,6.640625 -3.375,10.34375 -3.359375,3.71875 -9.421875,3.71875 -6,0 -9.390625,-3.71875 Q 19,61.96875 19,55.328125 q 0,-6.6875 3.390625,-10.40625 3.390625,-3.703125 9.390625,-3.703125 6.0625,0 9.421875,3.703125 3.375,3.71875 3.375,10.40625 z M 39.3125,38.8125 q 8.296875,-1.109375 12.9375,-6.125 4.640625,-5 4.640625,-12.765625 0,-10.25 -6.5,-15.796875 -6.5,-5.546875 -18.609375,-5.546875 -12.046875,0 -18.578125,5.546875 Q 6.6875,9.671875 6.6875,19.921875 6.6875,27.6875 11.328125,32.6875 15.96875,37.703125 24.3125,38.8125 16.9375,40.140625 13,44.40625 9.078125,48.6875 9.078125,55.328125 q 0,8.78125 6.046875,13.828125 6.0625,5.0625 16.65625,5.0625 10.609375,0 16.65625,-5.0625 Q 54.5,64.109375 54.5,55.328125 54.5,48.6875 50.5625,44.40625 46.625,40.140625 39.3125,38.8125 Z"
           id="DejaVuSerif-38" />
        <path
           d="m 7.078125,-15.578125 v 4.78125 q 7.515625,5.1875 10.8125,14.578125 3.296875,9.40625 3.296875,26.390625 0,17.046875 -3.296875,26.4375 -3.296875,9.40625 -10.8125,14.578125 v 4.796875 Q 19,70.65625 25.046875,59.109375 q 6.0625,-11.546875 6.0625,-28.9375 0,-17.328125 -6.0625,-28.875 Q 19,-10.25 7.078125,-15.578125 Z"
           id="DejaVuSerif-29" />
      </defs>
      <g
         transform="matrix(0.2,0,0,-0.2,239.48726,25.92)"
         id="g273">
        <use
           xlink:href="#DejaVuSerif-54"
           id="use219"
           x="0"
           y="0"
           width="100%"
           height="100%" />
        <use
           x="66.589844"
           xlink:href="#DejaVuSerif-65"
           id="use221"
           y="0"
           width="100%"
           height="100%" />
        <use
           x="125.76953"
           xlink:href="#DejaVuSerif-73"
           id="use223"
           y="0"
           width="100%"
           height="100%" />
        <use
           x="177.08789"
           xlink:href="#DejaVuSerif-74"
           id="use225"
           y="0"
           width="100%"
           height="100%" />
        <use
           x="217.27344"
           xlink:href="#DejaVuSerif-20"
           id="use227"
           y="0"
           width="100%"
           height="100%" />
        <use
           x="249.06055"
           xlink:href="#DejaVuSerif-4e"
           id="use229"
           y="0"
           width="100%"
           height="100%" />
        <use
           x="336.56055"
           xlink:href="#DejaVuSerif-65"
           id="use231"
           y="0"
           width="100%"
           height="100%" />
        <use
           x="395.74023"
           xlink:href="#DejaVuSerif-74"
           id="use233"
           y="0"
           width="100%"
           height="100%" />
        <use
           x="435.92578"
           xlink:href="#DejaVuSerif-77"
           id="use235"
           y="0"
           width="100%"
           height="100%" />
        <use
           x="521.52148"
           xlink:href="#DejaVuSerif-6f"
           id="use237"
           y="0"
           width="100%"
           height="100%" />
        <use
           x="581.72656"
           xlink:href="#DejaVuSerif-72"
           id="use239"
           y="0"
           width="100%"
           height="100%" />
        <use
           x="629.5293"
           xlink:href="#DejaVuSerif-6b"
           id="use241"
           y="0"
           width="100%"
           height="100%" />
        <use
           x="690.125"
           xlink:href="#DejaVuSerif-20"
           id="use243"
           y="0"
           width="100%"
           height="100%" />
        <use
           x="721.91211"
           xlink:href="#DejaVuSerif-4f"
           id="use245"
           y="0"
           width="100%"
           height="100%" />
        <use
           x="803.89453"
           xlink:href="#DejaVuSerif-75"
           id="use247"
           y="0"
           width="100%"
           height="100%" />
        <use
           x="868.29883"
           xlink:href="#DejaVuSerif-74"
           id="use249"
           y="0"
           width="100%"
           height="100%" />
        <use
           x="908.48438"
           xlink:href="#DejaVuSerif-6c"
           id="use251"
           y="0"
           width="100%"
           height="100%" />
        <use
           x="940.4668"
           xlink:href="#DejaVuSerif-65"
           id="use253"
           y="0"
           width="100%"
           height="100%" />
        <use
           x="999.64648"
           xlink:href="#DejaVuSerif-74"
           id="use255"
           y="0"
           width="100%"
           height="100%" />
        <use
           x="1039.832"
           xlink:href="#DejaVuSerif-20"
           id="use257"
           y="0"
           width="100%"
           height="100%" />
        <use
           x="1071.6191"
           xlink:href="#DejaVuSerif-28"
           id="use259"
           y="0"
           width="100%"
           height="100%" />
        <use
           x="1110.6328"
           xlink:href="#DejaVuSerif-49"
           id="use261"
           y="0"
           width="100%"
           height="100%" />
        <use
           x="1150.1348"
           xlink:href="#DejaVuSerif-44"
           id="use263"
           y="0"
           width="100%"
           height="100%" />
        <use
           x="1230.3105"
           xlink:href="#DejaVuSerif-20"
           id="use265"
           y="0"
           width="100%"
           height="100%" />
        <use
           x="1262.0977"
           xlink:href="#DejaVuSerif-38"
           id="use267"
           y="0"
           width="100%"
           height="100%" />
        <use
           x="1325.7207"
           xlink:href="#DejaVuSerif-30"
           id="use269"
           y="0"
           width="100%"
           height="100%" />
        <use
           x="1389.3438"
           xlink:href="#DejaVuSerif-29"
           id="use271"
           y="0"
           width="100%"
           height="100%" />
      </g>
    </g>
    <g
       id="line2d_9"
       transform="translate(276.29083,602.356)">
      <path
         d="m 481.50317,58.116875 h 40.00001"
         style="fill:none;stroke:#000000;stroke-width:3;stroke-linecap:square"
         id="path279" />
    </g>
    <g
       id="g5739"
       transform="translate(63,-6.8833966)">
      <use
         xlink:href="#DejaVuSerif-57"
         id="use290"
         x="0"
         y="0"
         width="100%"
         height="100%"
         transform="matrix(0.2,0,0,-0.2,812.29401,674.97287)" />
      <use
         x="102.6582"
         xlink:href="#DejaVuSerif-65"
         id="use292"
         y="0"
         width="100%"
         height="100%"
         transform="matrix(0.2,0,0,-0.2,812.29401,674.97287)" />
      <use
         x="161.83789"
         xlink:href="#DejaVuSerif-62"
         id="use294"
         y="0"
         width="100%"
         height="100%"
         transform="matrix(0.2,0,0,-0.2,812.29401,674.97287)" />
    </g>
    <g
       id="g5744"
       transform="translate(-45,-7.5)">
      <use
         x="225.85156"
         xlink:href="#DejaVuSerif-48"
         id="use296"
         y="0"
         width="100%"
         height="100%"
         transform="matrix(0.2,0,0,-0.2,812.29401,674.97287)" />
      <use
         x="313.05859"
         xlink:href="#DejaVuSerif-4c"
         id="use298"
         y="0"
         width="100%"
         height="100%"
         transform="matrix(0.2,0,0,-0.2,812.29401,674.97287)" />
      <use
         x="379.46484"
         xlink:href="#DejaVuSerif-4d"
         id="use300"
         y="0"
         width="100%"
         height="100%"
         transform="matrix(0.2,0,0,-0.2,812.29401,674.97287)" />
    </g>
    <g
       id="g1583"
       transform="translate(43.394526,572.99975)">
      <g
         id="line2d_11">
        <path
           d="m 481.50317,87.473125 h 40.00001"
           style="fill:none;stroke:#ff5cad;stroke-width:2.5;stroke-dasharray:9.25, 4;stroke-dashoffset:0"
           id="path305" />
      </g>
      <g
         id="text_11">
        <!-- HLM - C Code -->
        <defs
           id="defs312">
          <path
             d="m 4.390625,30.609375 h 25 V 23 h -25 z"
             id="DejaVuSerif-2d" />
          <path
             d="M 70.515625,19.28125 Q 67.28125,9.078125 59.6875,3.828125 q -7.59375,-5.25 -19.203125,-5.25 -7.140625,0 -13.25,2.4375 -6.09375,2.453125 -10.828125,7.1875 -5.46875,5.46875 -8.140625,12.421875 -2.65625,6.96875 -2.65625,15.75 0,17 9.8125,27.421875 Q 25.25,74.21875 41.3125,74.21875 q 5.953125,0 12.6875,-1.5625 6.75,-1.5625 14.5,-4.734375 V 51.125 h -5.515625 q -1.796875,9.171875 -7.25,13.515625 Q 50.296875,69 40.484375,69 28.8125,69 22.796875,60.71875 q -6,-8.28125 -6,-24.34375 0,-16.015625 6,-24.296875 Q 28.8125,3.8125 40.484375,3.8125 q 8.15625,0 13.421875,3.875 5.28125,3.890625 7.625,11.59375 z"
             id="DejaVuSerif-43" />
          <path
             d="m 52.484375,5.171875 h 8.59375 V 0 H 43.5 v 8.109375 q -2.625,-4.890625 -6.703125,-7.21875 -4.078125,-2.3125 -10.09375,-2.3125 -9.5625,0 -15.640625,7.59375 -6.078125,7.59375 -6.078125,19.8125 0,12.203125 6.046875,19.765625 6.0625,7.578125 15.671875,7.578125 6.015625,0 10.09375,-2.328125 Q 40.875,48.6875 43.5,43.796875 v 27 h -8.484375 v 5.1875 h 17.46875 z M 43.5,23.390625 v 5.125 q 0,9.328125 -3.59375,14.25 -3.578125,4.9375 -10.40625,4.9375 -6.9375,0 -10.484375,-5.46875 -3.53125,-5.46875 -3.53125,-16.25 0,-10.75 3.53125,-16.265625 Q 22.5625,4.203125 29.5,4.203125 q 6.828125,0 10.40625,4.90625 Q 43.5,14.015625 43.5,23.390625 Z"
             id="DejaVuSerif-64" />
        </defs>
        <g
           transform="matrix(0.2,0,0,-0.2,537.50318,94.473125)"
           id="g338">
          <use
             xlink:href="#DejaVuSerif-48"
             id="use314"
             x="0"
             y="0"
             width="100%"
             height="100%" />
          <use
             x="87.207031"
             xlink:href="#DejaVuSerif-4c"
             id="use316"
             y="0"
             width="100%"
             height="100%" />
          <use
             x="153.61328"
             xlink:href="#DejaVuSerif-4d"
             id="use318"
             y="0"
             width="100%"
             height="100%" />
          <use
             x="256.00586"
             xlink:href="#DejaVuSerif-20"
             id="use320"
             y="0"
             width="100%"
             height="100%" />
          <use
             x="287.79297"
             xlink:href="#DejaVuSerif-2d"
             id="use322"
             y="0"
             width="100%"
             height="100%" />
          <use
             x="321.58203"
             xlink:href="#DejaVuSerif-20"
             id="use324"
             y="0"
             width="100%"
             height="100%" />
          <use
             x="353.36914"
             xlink:href="#DejaVuSerif-43"
             id="use326"
             y="0"
             width="100%"
             height="100%" />
          <use
             x="429.88281"
             xlink:href="#DejaVuSerif-20"
             id="use328"
             y="0"
             width="100%"
             height="100%" />
          <use
             x="461.66992"
             xlink:href="#DejaVuSerif-43"
             id="use330"
             y="0"
             width="100%"
             height="100%" />
          <use
             x="538.18359"
             xlink:href="#DejaVuSerif-6f"
             id="use332"
             y="0"
             width="100%"
             height="100%" />
          <use
             x="598.38867"
             xlink:href="#DejaVuSerif-64"
             id="use334"
             y="0"
             width="100%"
             height="100%" />
          <use
             x="662.40234"
             xlink:href="#DejaVuSerif-65"
             id="use336"
             y="0"
             width="100%"
             height="100%" />
        </g>
      </g>
    </g>
    <text
       xml:space="preserve"
       style="font-size:20px;line-height:1.25;font-family:sans-serif;-inkscape-font-specification:sans-serif;letter-spacing:0px;word-spacing:0px;stroke-width:0.75"
       x="864.55811"
       y="672.90588"
       id="text7288"
       transform="translate(1.5,-7.5)"><tspan
         sodipodi:role="line"
         id="tspan7286"
         style="stroke-width:0.75"
         x="864.55811"
         y="672.90588">-</tspan></text>
    <g
       id="matplotlib.axis_3">
      <g
         id="xtick_4">
        <g
           id="line2d_13">
          <g
             id="g348">
            <use
               style="stroke:#000000;stroke-width:0.8"
               x="774.98083"
               xlink:href="#mb92d56cd13"
               y="587.32001"
               id="use346"
               width="100%"
               height="100%" />
          </g>
        </g>
        <g
           id="text_12">
          <!-- 0 -->
          <g
             transform="matrix(0.2,0,0,-0.2,768.61834,609.51688)"
             id="g353">
            <use
               xlink:href="#DejaVuSerif-30"
               id="use351"
               x="0"
               y="0"
               width="100%"
               height="100%" />
          </g>
        </g>
      </g>
      <g
         id="xtick_5">
        <g
           id="line2d_14">
          <g
             id="g359">
            <use
               style="stroke:#000000;stroke-width:0.8"
               x="1089.3329"
               xlink:href="#mb92d56cd13"
               y="587.32001"
               id="use357"
               width="100%"
               height="100%" />
          </g>
        </g>
        <g
           id="text_13">
          <!-- 2500 -->
          <g
             transform="matrix(0.2,0,0,-0.2,1063.8829,609.51688)"
             id="g370">
            <use
               xlink:href="#DejaVuSerif-32"
               id="use362"
               x="0"
               y="0"
               width="100%"
               height="100%" />
            <use
               x="63.623047"
               xlink:href="#DejaVuSerif-35"
               id="use364"
               y="0"
               width="100%"
               height="100%" />
            <use
               x="127.24609"
               xlink:href="#DejaVuSerif-30"
               id="use366"
               y="0"
               width="100%"
               height="100%" />
            <use
               x="190.86914"
               xlink:href="#DejaVuSerif-30"
               id="use368"
               y="0"
               width="100%"
               height="100%" />
          </g>
        </g>
      </g>
      <g
         id="xtick_6">
        <g
           id="line2d_15">
          <g
             id="g376">
            <use
               style="stroke:#000000;stroke-width:0.8"
               x="1403.6851"
               xlink:href="#mb92d56cd13"
               y="587.32001"
               id="use374"
               width="100%"
               height="100%" />
          </g>
        </g>
        <g
           id="text_14">
          <!-- 5000 -->
          <g
             transform="matrix(0.2,0,0,-0.2,1378.235,609.51688)"
             id="g387">
            <use
               xlink:href="#DejaVuSerif-35"
               id="use379"
               x="0"
               y="0"
               width="100%"
               height="100%" />
            <use
               x="63.623047"
               xlink:href="#DejaVuSerif-30"
               id="use381"
               y="0"
               width="100%"
               height="100%" />
            <use
               x="127.24609"
               xlink:href="#DejaVuSerif-30"
               id="use383"
               y="0"
               width="100%"
               height="100%" />
            <use
               x="190.86914"
               xlink:href="#DejaVuSerif-30"
               id="use385"
               y="0"
               width="100%"
               height="100%" />
          </g>
        </g>
      </g>
      <g
         id="text_15">
        <!-- Time [min] -->
        <g
           transform="matrix(0.2,0,0,-0.2,1030.816,632.87312)"
           id="g411">
          <use
             xlink:href="#DejaVuSerif-54"
             id="use391"
             x="0"
             y="0"
             width="100%"
             height="100%" />
          <use
             x="66.699219"
             xlink:href="#DejaVuSerif-69"
             id="use393"
             y="0"
             width="100%"
             height="100%" />
          <use
             x="98.681641"
             xlink:href="#DejaVuSerif-6d"
             id="use395"
             y="0"
             width="100%"
             height="100%" />
          <use
             x="193.50586"
             xlink:href="#DejaVuSerif-65"
             id="use397"
             y="0"
             width="100%"
             height="100%" />
          <use
             x="252.68555"
             xlink:href="#DejaVuSerif-20"
             id="use399"
             y="0"
             width="100%"
             height="100%" />
          <use
             x="284.47266"
             xlink:href="#DejaVuSerif-5b"
             id="use401"
             y="0"
             width="100%"
             height="100%" />
          <use
             x="323.48633"
             xlink:href="#DejaVuSerif-6d"
             id="use403"
             y="0"
             width="100%"
             height="100%" />
          <use
             x="418.31055"
             xlink:href="#DejaVuSerif-69"
             id="use405"
             y="0"
             width="100%"
             height="100%" />
          <use
             x="450.29297"
             xlink:href="#DejaVuSerif-6e"
             id="use407"
             y="0"
             width="100%"
             height="100%" />
          <use
             x="514.69727"
             xlink:href="#DejaVuSerif-5d"
             id="use409"
             y="0"
             width="100%"
             height="100%" />
        </g>
      </g>
    </g>
    <g
       id="line2d_16">
      <g
         id="g417">
        <use
           style="stroke:#000000;stroke-width:0.8"
           x="768.69379"
           xlink:href="#m80b14eff4f"
           y="578.90485"
           id="use415"
           width="100%"
           height="100%" />
      </g>
    </g>
    <g
       id="text_16">
      <!-- 0.0 -->
      <defs
         id="defs421">
        <path
           d="m 9.421875,5.078125 q 0,2.734375 1.859375,4.640625 1.859375,1.90625 4.640625,1.90625 2.6875,0 4.578125,-1.90625 1.90625,-1.90625 1.90625,-4.640625 0,-2.6875 -1.90625,-4.59375 -1.890625,-1.90625 -4.578125,-1.90625 -2.78125,0 -4.640625,1.875 -1.859375,1.890625 -1.859375,4.625 z"
           id="DejaVuSerif-2e" />
      </defs>
      <g
         transform="matrix(0.2,0,0,-0.2,729.88755,586.50329)"
         id="g429">
        <use
           xlink:href="#DejaVuSerif-30"
           id="use423"
           x="0"
           y="0"
           width="100%"
           height="100%" />
        <use
           x="63.623047"
           xlink:href="#DejaVuSerif-2e"
           id="use425"
           y="0"
           width="100%"
           height="100%" />
        <use
           x="95.410156"
           xlink:href="#DejaVuSerif-30"
           id="use427"
           y="0"
           width="100%"
           height="100%" />
      </g>
    </g>
    <g
       id="ytick_5">
      <g
         id="line2d_17">
        <g
           id="g435">
          <use
             style="stroke:#000000;stroke-width:0.8"
             x="768.69379"
             xlink:href="#m80b14eff4f"
             y="326.45032"
             id="use433"
             width="100%"
             height="100%" />
        </g>
      </g>
      <g
         id="text_17">
        <!-- 0.3 -->
        <g
           transform="matrix(0.2,0,0,-0.2,729.88755,334.04874)"
           id="g444">
          <use
             xlink:href="#DejaVuSerif-30"
             id="use438"
             x="0"
             y="0"
             width="100%"
             height="100%" />
          <use
             x="63.623047"
             xlink:href="#DejaVuSerif-2e"
             id="use440"
             y="0"
             width="100%"
             height="100%" />
          <use
             x="95.410156"
             xlink:href="#DejaVuSerif-33"
             id="use442"
             y="0"
             width="100%"
             height="100%" />
        </g>
      </g>
    </g>
    <g
       id="ytick_6">
      <g
         id="line2d_18">
        <g
           id="g450">
          <use
             style="stroke:#000000;stroke-width:0.8"
             x="768.69379"
             xlink:href="#m80b14eff4f"
             y="73.995758"
             id="use448"
             width="100%"
             height="100%" />
        </g>
      </g>
      <g
         id="text_18">
        <!-- 0.6 -->
        <defs
           id="defs454">
          <path
             d="m 32.71875,3.421875 q 6.875,0 10.578125,5.046875 3.71875,5.0625 3.71875,14.53125 0,9.46875 -3.71875,14.515625 -3.703125,5.0625 -10.578125,5.0625 -6.984375,0 -10.65625,-4.890625 -3.65625,-4.875 -3.65625,-14.109375 0,-9.703125 3.703125,-14.9375 3.71875,-5.21875 10.609375,-5.21875 z m -15.921875,36.71875 q 3.328125,3.65625 7.515625,5.453125 4.203125,1.8125 9.484375,1.8125 10.875,0 17.203125,-6.546875 Q 57.328125,34.328125 57.328125,23 q 0,-11.078125 -6.8125,-17.75 -6.8125,-6.671875 -18.1875,-6.671875 -12.359375,0 -19,9.203125 Q 6.6875,17 6.6875,34.078125 q 0,19.140625 7.859375,29.640625 7.859375,10.5 22.171875,10.5 3.859375,0 8.109375,-0.734375 4.25,-0.734375 8.6875,-2.1875 V 59.28125 H 48 q -0.59375,4.921875 -3.765625,7.515625 -3.171875,2.59375 -8.546875,2.59375 -9.46875,0 -14.109375,-7.1875 -4.640625,-7.171875 -4.78125,-22.0625 z"
             id="DejaVuSerif-36" />
        </defs>
        <g
           transform="matrix(0.2,0,0,-0.2,729.88755,81.594195)"
           id="g462">
          <use
             xlink:href="#DejaVuSerif-30"
             id="use456"
             x="0"
             y="0"
             width="100%"
             height="100%" />
          <use
             x="63.623047"
             xlink:href="#DejaVuSerif-2e"
             id="use458"
             y="0"
             width="100%"
             height="100%" />
          <use
             x="95.410156"
             xlink:href="#DejaVuSerif-36"
             id="use460"
             y="0"
             width="100%"
             height="100%" />
        </g>
      </g>
    </g>
    <g
       id="line2d_19">
      <path
         clip-path="url(#p366f44c629)"
         d="m 774.98084,578.90401 0.25987,-0.0909 0.29549,-0.37665 0.33321,-0.73908 0.45267,-1.47909 0.54487,-2.5383 0.54069,-2.28695 0.62661,-1.58187 0.93886,-1.58774 1.53614,-2.50454 1.26369,-2.56218 1.67864,-4.01778 4.80959,-11.9523 4.38416,-10.2921 2.11664,-5.67175 2.1816,-6.86933 2.17951,-8.16806 2.24028,-9.85354 2.30106,-11.48106 7.26153,-38.13973 2.17532,-9.49563 2.09568,-7.63136 1.17777,-3.62133 1.17778,-3.16684 1.23435,-2.87317 1.23436,-2.4731 1.27627,-2.20639 1.27627,-1.92775 2.74324,-3.57921 2.98844,-3.76744 2.45614,-3.58346 1.22388,-2.07571 1.22388,-2.31219 1.22387,-2.5693 2.43099,-5.89911 2.56092,-7.31642 2.69505,-8.71567 4.50781,-15.92485 4.54762,-16.07598 2.66152,-8.71094 2.73696,-8.07418 2.60283,-6.66609 2.49805,-5.36169 1.27837,-2.33151 1.27836,-2.04717 1.25532,-1.73269 1.25531,-1.45911 1.27417,-1.2049 1.27418,-0.9327 1.30141,-0.6796 1.30142,-0.41386 1.32028,-0.1606 1.32028,0.0863 1.33285,0.32167 1.33285,0.54002 1.3119,0.72675 1.3119,0.90184 1.33075,1.074 2.80612,2.69851 3.25669,3.65428 8.47493,10.08519 3.19801,3.3341 3.04712,2.68269 1.53194,1.13878 1.48584,0.96313 1.48583,0.82271 1.51099,0.69413 1.50051,0.55093 1.50051,0.41886 1.52775,0.29773 1.55499,0.17723 1.555,0.0577 1.61996,-0.061 1.61996,-0.1808 1.599,-0.29582 1.59901,-0.41638 1.56966,-0.53383 1.49213,-0.63311 1.49212,-0.76903 1.47117,-0.907 1.35171,-0.9785 1.29513,-1.0817 1.29304,-1.23396 1.26998,-1.3744 1.26998,-1.54726 1.3098,-1.78871 1.28046,-1.94838 1.28046,-2.15455 2.6238,-5.08444 2.59445,-5.93113 2.62798,-6.90953 2.6217,-7.74031 2.65313,-8.59456 2.74953,-9.56754 4.87456,-18.01283 5.42362,-20.2447 2.94233,-10.39598 2.78726,-9.09423 2.58607,-7.55985 2.60912,-6.59429 1.32447,-2.90648 1.2637,-2.47958 1.26369,-2.18419 1.31818,-1.95759 1.31819,-1.62677 1.27627,-1.2597 1.27627,-0.95185 1.32027,-0.66614 1.32028,-0.35013 1.30352,-0.0455 1.30351,0.24099 1.35171,0.53834 1.35172,0.81585 1.32237,1.04993 1.32238,1.28175 1.33285,1.50849 1.33495,1.71053 2.69712,3.99014 2.8732,4.89693 3.2672,6.16632 3.5207,7.10481 12.6977,26.16082 3.5795,6.81679 3.4054,6.06502 3.2944,5.4173 3.2421,4.85494 3.1812,4.26942 3.1687,3.73231 3.0932,3.10822 3.001,2.47337 1.4796,1.01052 1.5529,0.904 1.4439,0.69069 1.4313,0.53629 1.4314,0.38252 1.5403,0.23266 1.3895,0.0445 1.3475,-0.1123 1.3265,-0.26502 1.3036,-0.41412 1.2972,-0.56739 1.2972,-0.72578 1.2847,-0.87772 1.2846,-1.03814 1.2889,-1.2043 1.3391,-1.42499 2.6112,-3.28583 2.6448,-3.99822 2.6489,-4.64888 2.7286,-5.41144 2.869,-6.29644 3.1833,-7.60318 3.2776,-8.36986 5.3608,-14.5255 5.9308,-16.80978 9.3802,-27.39145 9.3593,-27.35147 3.6088,-10.08413 3.2818,-8.6763 3.0702,-7.51904 3.001,-6.64219 2.7517,-5.36255 2.6238,-4.38401 2.5714,-3.54791 1.2762,-1.47346 1.2931,-1.29376 1.3139,-1.10717 1.314,-0.8969 1.3392,-0.6975 1.2972,-0.46814 1.2972,-0.26602 1.3308,-0.0655 1.3266,0.14 1.3098,0.33491 1.3098,0.5254 1.3223,0.71829 1.3455,0.91847 1.3454,1.10071 1.3475,1.27797 1.379,1.48199 1.425,1.708 3.0283,4.18406 3.022,4.85464 3.1812,5.74984 3.3342,6.62741 3.4244,7.34028 3.5626,8.10256 5.7003,13.70271 7.4082,18.66205 22.0843,56.44724 7.3537,18.00131 7.3538,17.30328 5.5116,12.45585 5.5117,11.9897 5.5137,11.51504 5.5032,11.00944 5.5222,10.56234 5.5095,10.05931 5.5075,9.58642 5.5179,9.14565 5.5011,8.67439 5.5264,8.28294 5.5137,7.84968 5.5137,7.45208 5.5242,7.08444 5.5117,6.70424 5.5305,6.3784 5.5263,6.04106 5.5242,5.72262 5.5305,5.42808 5.5284,5.13997 5.5347,4.87385 5.5368,4.61732 5.5389,4.37381 5.5368,4.13965 5.5514,3.92937 5.5368,3.70977 7.404,4.65315 7.4041,4.32327 7.3977,4.01274 7.4167,3.73612 7.427,3.47314 7.4146,3.21759 7.4208,2.98727 7.4396,2.77635 7.4376,2.57123 2.3842,0.78203 v 0"
         style="fill:none;stroke:#000000;stroke-width:3;stroke-linecap:square"
         id="path467" />
    </g>
    <g
       id="line2d_20">
      <path
         clip-path="url(#p366f44c629)"
         d="m 774.98084,578.90401 0.62871,-0.60337 0.6287,-1.76886 1.25741,-5.41095 0.6287,-1.47265 1.25741,-2.01963 1.25741,-2.10379 1.25741,-2.6087 3.14352,-7.82609 3.14352,-7.74194 4.40093,-10.26649 1.88611,-5.04908 1.25741,-3.70267 1.88611,-6.31137 1.88611,-7.40533 1.25741,-5.46985 1.88611,-9.00421 3.77223,-19.69145 0.6287,-3.36606 0.62871,-4.20758 0.6287,-2.52455 2.51482,-13.46424 1.25741,-5.04909 0.6287,-3.36606 0.62871,-2.52455 0.6287,-1.68303 1.25741,-5.04909 3.14352,-8.41515 0.6287,-0.84151 0.62871,-1.68303 0.6287,-0.84152 0.62871,-1.68303 10.68797,-14.30576 0.6287,-1.68303 0.6287,-0.84151 0.62871,-1.68303 0.6287,-0.84152 1.25741,-3.36606 0.6287,-0.84151 2.51482,-6.73213 0.62871,-2.52454 1.2574,-3.36606 0.62871,-2.52455 0.6287,-1.68303 0.62871,-2.52454 0.6287,-1.68303 0.6287,-2.52455 0.62871,-1.68303 1.25741,-5.04909 0.6287,-1.68303 1.88611,-7.57364 0.62871,-1.68303 0.6287,-2.52454 0.62871,-1.68303 1.2574,-5.04909 0.62871,-1.68303 0.6287,-2.52455 1.25741,-3.36606 0.62871,-2.52454 1.88611,-5.04909 0.6287,-2.52455 0.62871,-1.68303 0.6287,-0.84152 1.88611,-5.04909 0.62871,-0.84151 1.25741,-3.36606 1.88611,-2.52455 0.6287,-1.68303 1.88612,-2.52454 h 0.6287 l 1.25741,-1.68303 h 0.6287 l 0.62871,-0.84152 h 0.6287 l 0.6287,-0.84152 h 5.65834 l 0.6287,0.84152 h 1.25741 l 0.62871,0.84152 h 0.6287 l 0.62871,0.84151 h 0.6287 l 1.25741,1.68303 h 0.6287 l 1.88611,2.52455 h 0.62871 l 4.40093,5.8906 h 0.6287 l 5.02964,6.73212 h 0.6287 l 2.51482,3.36606 h 0.6287 l 1.25741,1.68304 h 0.6287 l 1.25741,1.68302 3.77223,2.52455 h 1.25741 l 2.51481,1.68303 h 2.51482 l 1.25741,0.84152 h 3.77222 l 1.25741,-0.84152 h 3.77223 l 2.51481,-1.68303 h 1.25741 l 5.02963,-3.36606 2.51482,-3.36606 1.25741,-0.84152 1.25741,-1.68303 1.2574,-2.52454 1.25741,-1.68303 3.77223,-7.57364 6.28704,-16.8303 6.28704,-21.03788 1.25741,-5.04909 1.25741,-4.20758 2.51481,-10.09818 1.25741,-4.20757 1.25741,-5.0491 1.25741,-4.20757 1.25741,-5.04909 6.28704,-21.03788 3.77222,-10.09818 5.02964,-10.09818 1.25741,-1.68304 1.2574,-0.84151 1.25741,-1.68303 1.25741,-0.84152 h 1.25741 l 1.25741,-0.84151 h 1.25741 l 1.2574,0.84151 h 1.25741 l 2.51482,1.68303 1.25741,1.68303 1.25741,0.84152 2.51481,3.36606 1.25738,2.52455 1.2574,1.68303 1.2574,2.52454 1.2575,1.68303 11.3166,22.72091 1.2574,3.36606 8.8019,17.67182 1.2574,1.68303 2.5148,5.04909 1.2574,1.68303 1.2574,2.52455 1.2574,1.68303 1.2575,2.52454 7.5444,10.09818 1.2574,0.84152 1.2574,1.68303 1.2574,0.84152 1.2574,1.68303 6.2871,4.20757 h 1.2574 l 1.2574,0.84152 h 7.5444 l 6.2871,-4.20758 2.5148,-3.36606 1.2574,-0.84152 1.2574,-2.52454 2.5148,-3.36606 7.5445,-15.14727 1.2574,-3.36606 1.2574,-2.52455 12.5741,-33.6606 1.2574,-4.20758 3.7722,-10.09818 1.2574,-4.20758 2.5148,-6.73212 1.2575,-4.20758 1.2574,-3.36606 1.2574,-4.20757 2.5148,-6.73212 1.2574,-4.20758 1.2574,-3.36606 1.2574,-4.20758 3.7722,-10.09818 1.2574,-4.20757 3.7723,-10.09819 1.2574,-2.52454 2.5148,-6.73212 7.5444,-15.14727 3.7723,-5.04909 1.2574,-0.84152 1.2574,-1.68303 3.7722,-2.52455 h 1.2574 l 1.2574,-0.84151 h 2.5148 l 1.2575,0.84151 h 1.2574 l 3.7722,2.52455 1.2574,1.68303 1.2574,0.84152 6.287,8.41515 1.2575,2.52454 1.2574,1.68303 10.0592,20.19637 1.2574,3.36606 1.2574,2.52454 1.2575,3.36606 1.2574,2.52455 1.2574,3.36606 1.2574,2.52454 3.7722,10.09819 1.2574,2.52454 5.0296,13.46424 1.2575,2.52455 7.5444,20.19636 1.2574,2.52455 6.2871,16.8303 1.2574,2.52455 3.7722,10.09818 1.2574,2.52454 2.5148,6.73212 1.2574,2.52455 1.2574,3.36606 1.2574,2.52455 1.2574,3.36606 1.2575,2.52454 1.2574,3.36606 1.2574,2.52455 1.2574,3.36606 1.2574,2.52454 1.2574,3.36606 2.5148,5.0491 1.2574,3.36606 2.5148,5.04909 1.2574,3.36606 17.6038,35.34364 1.2574,1.68302 3.7722,7.57364 1.2574,1.68303 1.2574,2.52455 1.2574,1.68303 2.5148,5.04909 1.2574,1.68303 1.2575,2.52454 2.5148,3.36606 1.2574,2.52455 1.2574,1.68303 1.2574,2.52455 2.5148,3.36606 1.2574,2.52454 6.2871,8.41515 1.2574,2.52455 12.5741,16.8303 1.2574,0.84152 5.0296,6.73212 1.2574,0.84151 2.5148,3.36606 1.2574,0.84152 2.5148,3.36606 1.2575,0.84151 2.5148,3.36607 1.2574,0.84151 1.2574,1.68303 1.2574,0.84152 1.2574,1.68303 1.2574,0.84151 1.2574,1.68303 1.2574,0.84152 1.2574,1.68303 1.2574,0.84151 1.2575,1.68303 2.5148,1.68303 1.2574,1.68303 2.5148,1.68303 1.2574,1.68303 3.7722,2.52455 1.2574,1.68303 3.7723,2.52455 1.2574,1.68303 10.0592,6.73212 1.2574,1.68303 11.3167,7.57363 h 1.2574 l 10.0593,6.73212 h 1.2574 l 6.287,4.20758 h 1.2575 l 3.7722,2.52455 h 1.2574 l 3.7722,2.52454 h 1.2574 l 2.5148,1.68303 h 1.2574 l 2.5149,1.68303 h 1.2574 l 2.5148,1.68303 h 1.2574 l 1.2574,0.84152 h 1.2574 l 2.5148,1.68303 h 1.2574 l 1.2574,0.84151 h 1.2575 l 2.5148,1.68303 1.2574,0.0842 3.7722,1.43057 7.1372,2.47242 v 0"
         style="fill:none;stroke:#ff5cad;stroke-width:2.5;stroke-dasharray:9.25, 4;stroke-dashoffset:0"
         id="path470" />
    </g>
    <g
       id="text_19">
      <!-- Clear Creek Outlet (ID 2527) -->
      <defs
         id="defs486">
        <path
           d="M 56.390625,67.921875 27.875,0 h -7.265625 l 27.1875,64.890625 h -33.6875 V 55.90625 H 8.40625 v 17 h 47.984375 z"
           id="DejaVuSerif-37" />
      </defs>
      <g
         transform="matrix(0.2,0,0,-0.2,938.62378,25.92)"
         id="g544">
        <use
           xlink:href="#DejaVuSerif-43"
           id="use488"
           x="0"
           y="0"
           width="100%"
           height="100%" />
        <use
           x="76.513672"
           xlink:href="#DejaVuSerif-6c"
           id="use490"
           y="0"
           width="100%"
           height="100%" />
        <use
           x="108.49609"
           xlink:href="#DejaVuSerif-65"
           id="use492"
           y="0"
           width="100%"
           height="100%" />
        <use
           x="167.67578"
           xlink:href="#DejaVuSerif-61"
           id="use494"
           y="0"
           width="100%"
           height="100%" />
        <use
           x="227.29492"
           xlink:href="#DejaVuSerif-72"
           id="use496"
           y="0"
           width="100%"
           height="100%" />
        <use
           x="275.09766"
           xlink:href="#DejaVuSerif-20"
           id="use498"
           y="0"
           width="100%"
           height="100%" />
        <use
           x="306.88477"
           xlink:href="#DejaVuSerif-43"
           id="use500"
           y="0"
           width="100%"
           height="100%" />
        <use
           x="383.39844"
           xlink:href="#DejaVuSerif-72"
           id="use502"
           y="0"
           width="100%"
           height="100%" />
        <use
           x="431.20117"
           xlink:href="#DejaVuSerif-65"
           id="use504"
           y="0"
           width="100%"
           height="100%" />
        <use
           x="490.38086"
           xlink:href="#DejaVuSerif-65"
           id="use506"
           y="0"
           width="100%"
           height="100%" />
        <use
           x="549.56055"
           xlink:href="#DejaVuSerif-6b"
           id="use508"
           y="0"
           width="100%"
           height="100%" />
        <use
           x="610.15625"
           xlink:href="#DejaVuSerif-20"
           id="use510"
           y="0"
           width="100%"
           height="100%" />
        <use
           x="641.94336"
           xlink:href="#DejaVuSerif-4f"
           id="use512"
           y="0"
           width="100%"
           height="100%" />
        <use
           x="723.92578"
           xlink:href="#DejaVuSerif-75"
           id="use514"
           y="0"
           width="100%"
           height="100%" />
        <use
           x="788.33008"
           xlink:href="#DejaVuSerif-74"
           id="use516"
           y="0"
           width="100%"
           height="100%" />
        <use
           x="828.51562"
           xlink:href="#DejaVuSerif-6c"
           id="use518"
           y="0"
           width="100%"
           height="100%" />
        <use
           x="860.49805"
           xlink:href="#DejaVuSerif-65"
           id="use520"
           y="0"
           width="100%"
           height="100%" />
        <use
           x="919.67773"
           xlink:href="#DejaVuSerif-74"
           id="use522"
           y="0"
           width="100%"
           height="100%" />
        <use
           x="959.86328"
           xlink:href="#DejaVuSerif-20"
           id="use524"
           y="0"
           width="100%"
           height="100%" />
        <use
           x="991.65039"
           xlink:href="#DejaVuSerif-28"
           id="use526"
           y="0"
           width="100%"
           height="100%" />
        <use
           x="1030.6641"
           xlink:href="#DejaVuSerif-49"
           id="use528"
           y="0"
           width="100%"
           height="100%" />
        <use
           x="1070.166"
           xlink:href="#DejaVuSerif-44"
           id="use530"
           y="0"
           width="100%"
           height="100%" />
        <use
           x="1150.3418"
           xlink:href="#DejaVuSerif-20"
           id="use532"
           y="0"
           width="100%"
           height="100%" />
        <use
           x="1182.1289"
           xlink:href="#DejaVuSerif-32"
           id="use534"
           y="0"
           width="100%"
           height="100%" />
        <use
           x="1245.752"
           xlink:href="#DejaVuSerif-35"
           id="use536"
           y="0"
           width="100%"
           height="100%" />
        <use
           x="1309.375"
           xlink:href="#DejaVuSerif-32"
           id="use538"
           y="0"
           width="100%"
           height="100%" />
        <use
           x="1372.998"
           xlink:href="#DejaVuSerif-37"
           id="use540"
           y="0"
           width="100%"
           height="100%" />
        <use
           x="1436.6211"
           xlink:href="#DejaVuSerif-29"
           id="use542"
           y="0"
           width="100%"
           height="100%" />
      </g>
    </g>
  </g>
</svg>
